<svg xmlns="http://www.w3.org/2000/svg" xml:space="preserve" style="enable-background:new 0 0 24 24" viewBox="0 0 24 24"><g id="Layer_2"><path d="M16.7 8.8c-1.9 0-3.8-.8-5.1-2.3-1.6-1.8-4.3-2.2-6.3-.8L3.6 6.8c-.5.3-1.1.2-1.4-.2-.3-.5-.2-1.1.2-1.4L4.2 4c2.8-1.9 6.6-1.4 8.9 1.2 1.7 1.9 4.6 2.2 6.6.6l.7-.5c.4-.3 1.1-.3 1.4.2.3.4.3 1.1-.2 1.4l-.6.4c-1.3 1-2.8 1.5-4.3 1.5zM16.7 14.8c-1.9 0-3.8-.8-5.1-2.3-1.6-1.8-4.3-2.2-6.3-.8l-1.8 1.2c-.5.3-1.1.2-1.4-.3s-.1-1.1.3-1.4L4.2 10c2.8-1.9 6.6-1.4 8.9 1.2 1.7 1.9 4.6 2.2 6.6.6l.7-.5c.4-.3 1.1-.3 1.4.2.3.4.3 1.1-.2 1.4l-.6.4c-1.3 1-2.8 1.5-4.3 1.5zM16.7 20.8c-1.9 0-3.8-.8-5.1-2.3-1.6-1.8-4.3-2.2-6.3-.8l-1.8 1.2c-.5.3-1.1.2-1.4-.3-.3-.5-.2-1.1.3-1.4L4.2 16c2.8-1.9 6.6-1.4 8.9 1.2 1.7 1.9 4.6 2.2 6.6.6l.7-.5c.4-.3 1.1-.3 1.4.2.3.4.3 1.1-.2 1.4l-.6.4c-1.3 1-2.8 1.5-4.3 1.5z" style="fill:#669ddb"/></g></svg>