<svg xmlns="http://www.w3.org/2000/svg" xmlns:xlink="http://www.w3.org/1999/xlink" width="90" height="90" version="1.0"><defs><linearGradient id="b"><stop offset="0" style="stop-color:#7a889e;stop-opacity:1"/><stop offset="1" style="stop-color:#002f77;stop-opacity:1"/></linearGradient><linearGradient id="a"><stop offset="0" style="stop-color:#fffbe1;stop-opacity:1"/><stop offset="1" style="stop-color:#ffe058;stop-opacity:1"/></linearGradient><linearGradient xlink:href="#b" id="c" x1="55.132" x2="63.767" y1="53.541" y2="88.094" gradientTransform="matrix(.82361 0 0 1.0901 8.105 -42.46)" gradientUnits="userSpaceOnUse"/></defs><path d="M18.97 25.114c2.671-12.607 14.783-9.393 17.29-7.039 4.646-10.95 16.43-7.706 21.287-.734 10.521-6.01 16.48 2.489 15.988 7.693 15.088 3.993 9.77 29.765-7.976 21.357-3.842 4.604-10.044 7.813-18.149 1.053-7.19 7.376-18.307 2.122-20.083-.977-17.43 9.017-29.04-15.83-8.357-21.353z" style="opacity:1;fill:#4d6790;fill-opacity:1;fill-rule:evenodd;stroke:#283d53;stroke-width:4.5;stroke-linecap:butt;stroke-linejoin:miter;marker:none;marker-start:none;marker-mid:none;marker-end:none;stroke-miterlimit:4;stroke-dasharray:none;stroke-dashoffset:0;stroke-opacity:1;visibility:visible;display:inline;overflow:visible;enable-background:accumulate"/><g id="d"><path d="M24.613 57.541c-5.294 6.79-8.636 5.897-11.21 12.036-3.318 7.91 7.34 13.725 12.144 4.32 3.838-7.515-1.868-10.184-.934-16.356z" style="opacity:1;fill:#31baff;fill-opacity:1;fill-rule:evenodd;stroke:#002f77;stroke-width:1.84591162000000009;stroke-linecap:butt;stroke-linejoin:miter;marker:none;marker-start:none;marker-mid:none;marker-end:none;stroke-miterlimit:10;stroke-dasharray:none;stroke-dashoffset:0;stroke-opacity:1;visibility:visible;display:inline;overflow:visible;enable-background:accumulate" transform="matrix(1.12117 -.16396 .1801 1.02071 -15.819 1.199)"/><path d="M17.468 67.602c1.466-2.02 5.615-3.6 2.752-.546-2.862 3.055-2.312 4.146-3.413 4.256-1.1.109-.529-2.07.66-3.71z" style="opacity:1;fill:#fff;fill-opacity:1;fill-rule:evenodd;stroke:none;stroke-width:2;stroke-linecap:butt;stroke-linejoin:miter;marker:none;marker-start:none;marker-mid:none;marker-end:none;stroke-miterlimit:10;stroke-dasharray:none;stroke-dashoffset:0;stroke-opacity:1;visibility:visible;display:inline;overflow:visible;enable-background:accumulate" transform="matrix(1.12117 -.16396 .1801 1.02071 -15.819 1.199)"/></g><use xlink:href="#d" width="90" height="90" transform="matrix(1.09064 0 0 1.09064 19.8 -3.164)"/><use xlink:href="#d" width="90" height="90" transform="matrix(.9732 0 0 .9732 44.08 1.831)"/></svg>