<svg xmlns="http://www.w3.org/2000/svg" width="90" height="90" version="1.0"><defs><linearGradient id="b"><stop offset="0" style="stop-color:#fff;stop-opacity:1"/><stop offset="1" style="stop-color:#a9e2f5;stop-opacity:1"/></linearGradient><linearGradient id="a"><stop offset="0" style="stop-color:#fffbe1;stop-opacity:1"/><stop offset="1" style="stop-color:#ffe058;stop-opacity:1"/></linearGradient></defs><path d="M14.626 29.46c2.67-12.608 14.782-9.394 17.288-7.04 4.647-10.95 16.43-7.706 21.288-.735 10.521-6.009 16.48 2.49 15.988 7.694 15.089 3.993 9.77 29.765-7.976 21.357-3.841 4.604-10.044 7.813-18.148 1.053-7.192 7.376-18.308 2.122-20.084-.977-17.43 9.017-29.04-15.83-8.356-21.353z" style="opacity:1;fill-rule:evenodd;fill:#558ada;fill-width:4.5;fill-linecap:butt;fill-linejoin:miter;marker:none;marker-start:none;marker-mid:none;marker-end:none;fill-miterlimit:4;fill-dasharray:none;fill-dashoffset:0;fill-opacity:1;visibility:visible;display:inline;overflow:visible;enable-background:accumulate"/><path d="M23.57 50.928c2.672-12.608 14.783-9.393 17.29-7.04 4.647-10.949 16.43-7.705 21.287-.734 10.522-6.009 16.48 2.49 15.989 7.694 15.088 3.992 9.77 29.765-7.976 21.357-3.842 4.604-10.044 7.813-18.15 1.053-7.19 7.376-18.306 2.122-20.082-.977-17.431 9.017-29.04-15.83-8.357-21.353z" style="opacity:1;fill-rule:evenodd;fill:#37598d;fill-width:4.5;fill-linecap:butt;fill-linejoin:miter;marker:none;marker-start:none;marker-mid:none;marker-end:none;fill-miterlimit:4;fill-dasharray:none;fill-dashoffset:0;fill-opacity:1;visibility:visible;display:inline;overflow:visible;enable-background:accumulate"/></svg>