<svg xmlns="http://www.w3.org/2000/svg" xmlns:xlink="http://www.w3.org/1999/xlink" width="90" height="90" version="1.0"><defs><linearGradient id="b"><stop offset="0" style="stop-color:#7a889e;stop-opacity:1"/><stop offset="1" style="stop-color:#002f77;stop-opacity:1"/></linearGradient><linearGradient id="a"><stop offset="0" style="stop-color:#fffbe1;stop-opacity:1"/><stop offset="1" style="stop-color:#ffe058;stop-opacity:1"/></linearGradient><linearGradient xlink:href="#b" id="c" x1="55.132" x2="63.767" y1="53.541" y2="88.094" gradientTransform="matrix(.82361 0 0 1.0901 8.105 -42.46)" gradientUnits="userSpaceOnUse"/></defs><path d="m57.743 46.626 10.226-1.568-4.452 10.63 5.698.32-10.818 18.936 2.744-13.356-5.733 1.353 2.335-16.315z" style="fill:#ffc93f;fill-rule:evenodd;stroke:#b01911;stroke-width:2;stroke-linecap:butt;stroke-linejoin:miter;stroke-miterlimit:10;stroke-dasharray:none;stroke-opacity:1"/><path d="m40.287 49.34 14.976-1.726-9.442 13.11 6.797-.57-13.021 20.924 3.316-13.86-7.185.083 4.559-17.961z" style="fill:#ffc93f;fill-rule:evenodd;stroke:#b01911;stroke-width:1.99999988;stroke-linecap:butt;stroke-linejoin:miter;stroke-miterlimit:10;stroke-dasharray:none;stroke-opacity:1"/><path d="m24.737 48.309 12.59-1.462L29.9 55.65l5.132 1.68-8.32 16.067.231-11.992-6.04-1.974 3.833-11.121z" style="fill:#ffc93f;fill-rule:evenodd;stroke:#b01911;stroke-width:2;stroke-linecap:butt;stroke-linejoin:miter;stroke-miterlimit:10;stroke-dasharray:none;stroke-opacity:1"/><path d="M18.97 25.114c2.671-12.607 14.783-9.393 17.29-7.039 4.646-10.95 16.43-7.706 21.287-.734 10.521-6.01 16.48 2.489 15.988 7.693 15.088 3.993 9.77 29.765-7.976 21.357-3.842 4.604-10.044 7.813-18.149 1.053-7.19 7.376-18.307 2.122-20.083-.977-17.43 9.017-29.04-15.83-8.357-21.353z" style="opacity:1;fill:#4d6790;fill-opacity:1;fill-rule:evenodd;stroke:#283d53;stroke-width:4.5;stroke-linecap:butt;stroke-linejoin:miter;marker:none;marker-start:none;marker-mid:none;marker-end:none;stroke-miterlimit:4;stroke-dasharray:none;stroke-dashoffset:0;stroke-opacity:1;visibility:visible;display:inline;overflow:visible;enable-background:accumulate"/></svg>