<svg xmlns="http://www.w3.org/2000/svg" xmlns:xlink="http://www.w3.org/1999/xlink" width="90" height="90" version="1.0"><defs><radialGradient xlink:href="#a" id="b" cx="42.024" cy="44.997" r="28.193" fx="35.642" fy="32.428" gradientTransform="matrix(1.02395 -.52395 .50146 .98 -19.76 21.721)" gradientUnits="userSpaceOnUse"/><linearGradient id="a"><stop offset="0" style="stop-color:#fffbe1;stop-opacity:1"/><stop offset="1" style="stop-color:#ffe058;stop-opacity:1"/></linearGradient></defs><path d="M49.719 3.625a5.352 5.352 0 0 0-3.157 1.188c-4.089 3.304-6.787 6.08-8.624 8.03-1.439 1.528-1.815 1.822-1.938 2-1.308-.651-3.89-2.296-7.906-4.812a5.352 5.352 0 0 0-8.094 3.5 83.943 83.943 0 0 0-1.469 11.719c-.12 2.084-.174 2.523-.156 2.75-1.419.342-4.49.751-9.188 1.406a5.352 5.352 0 0 0-3.937 7.907 83.596 83.596 0 0 0 6.406 9.906c1.268 1.7 1.511 2.119 1.656 2.25-.869 1.175-2.949 3.418-6.124 6.937A5.352 5.352 0 0 0 9.217 65 83.697 83.697 0 0 0 20.5 68.469c2.06.487 2.52.647 2.719.656.09 1.459-.048 4.542-.219 9.281a5.352 5.352 0 0 0 7.094 5.25c4.972-1.706 8.448-3.39 10.843-4.594 1.877-.943 2.324-1.092 2.5-1.218 1.007 1.059 2.9 3.48 5.813 7.219a5.352 5.352 0 0 0 8.813-.532c2.712-4.503 4.284-8.039 5.343-10.5.833-1.933 1.077-2.33 1.125-2.531 1.452.165 4.455.821 9.094 1.813a5.352 5.352 0 0 0 6.406-6.063 83.83 83.83 0 0 0-2.625-11.5c-.6-2.003-.687-2.452-.781-2.656 1.218-.808 3.939-2.249 8.125-4.469a5.352 5.352 0 0 0 1-8.75 84.025 84.025 0 0 0-9.406-7.125c-1.74-1.143-2.075-1.433-2.281-1.531.416-1.404 1.594-4.264 3.374-8.657a5.352 5.352 0 0 0-4.874-7.343 83.785 83.785 0 0 0-11.782.594c-2.096.245-2.58.222-2.781.28-.584-1.339-1.51-4.272-2.969-8.78a5.352 5.352 0 0 0-5.312-3.688z" style="fill:#ff923d;fill-opacity:1;fill-rule:evenodd;stroke:#000;stroke-width:0;stroke-linecap:butt;stroke-linejoin:miter;marker:none;marker-start:none;marker-mid:none;marker-end:none;stroke-miterlimit:4;stroke-dashoffset:0;stroke-opacity:1;visibility:visible;display:inline;overflow:visible;enable-background:accumulate" transform="translate(-2.92 -2.515) scale(1.04572)"/><path d="M75.247 68.679c-19.359-4.137-11.568-3.426-22.261 14.326-12.171-15.613-6.66-10.06-26.262-3.335.712-19.784 1.365-11.988-17.973-19.436 13.262-14.697 8.75-8.306-1.276-26.442 19.606-2.734 12.042-.737 16.019-21.076 16.777 10.509 9.7 7.177 25.819-5.848C55.41 25.702 52.13 18.6 72.85 18.985c-7.436 18.346-5.383 10.797 10.242 24.41-17.489 9.275-11.064 4.812-7.845 25.284z" style="fill:#ffc246;fill-opacity:1;fill-rule:evenodd;stroke:#000;stroke-width:0;stroke-linecap:butt;stroke-linejoin:miter;marker:none;marker-start:none;marker-mid:none;marker-end:none;stroke-miterlimit:4;stroke-dashoffset:0;stroke-opacity:1;visibility:visible;display:inline;overflow:visible;enable-background:accumulate"/><path d="M71.205 47.35a28.193 28.193 0 1 1-56.386 0 28.193 28.193 0 1 1 56.386 0z" style="opacity:1;fill:#ffe882;fill-opacity:1;fill-rule:evenodd;stroke:#000;stroke-width:0;stroke-linecap:butt;stroke-linejoin:miter;marker:none;marker-start:none;marker-mid:none;marker-end:none;stroke-miterlimit:4;stroke-dasharray:none;stroke-dashoffset:0;stroke-opacity:1;visibility:visible;display:inline;overflow:visible;enable-background:accumulate" transform="matrix(.89609 0 0 .89609 5.94 2.521)"/></svg>